<?xml version="1.0" standalone="no"?>
<!DOCTYPE svg PUBLIC "-//W3C//DTD SVG 1.1//EN" "http://www.w3.org/Graphics/SVG/1.1/DTD/svg11.dtd" >
<svg xmlns="http://www.w3.org/2000/svg" xmlns:xlink="http://www.w3.org/1999/xlink" version="1.1">
<metadata>
Created by FontForge 20160407 at Tue Aug  9 23:53:26 2016
 By Jimmy Wärting
</metadata>
<defs>
<font id="Triforce" horiz-adv-x="300" >
  <font-face 
    font-family="Triforce"
    font-weight="400"
    font-stretch="normal"
    units-per-em="1000"
    panose-1="0 0 0 0 0 0 0 0 0 0"
    ascent="800"
    descent="-200"
    x-height="605"
    cap-height="700"
    bbox="-30 -297 1160 762"
    underline-thickness="50"
    underline-position="-100"
    unicode-range="U+0020-007D"
  />
<missing-glyph 
 />
    <glyph glyph-name=".notdef" 
 />
    <glyph glyph-name=".null" horiz-adv-x="0" 
 />
    <glyph glyph-name="nonmarkingreturn" 
 />
    <glyph glyph-name="space" unicode=" " 
 />
    <glyph glyph-name="space" unicode="&#xa0;" 
 />
    <glyph glyph-name="a" unicode="a" horiz-adv-x="522" 
d="M513 0h-228l45 52l-32 156h-125l-41 -160l53 -48h-186l70 52l139 504l-63 50h156l154 -562l58 -44v0zM183 245h105l-53 212l-52 -212v0z" />
    <glyph glyph-name="h" unicode="h" horiz-adv-x="437" 
d="M382 570v-525l39 -45h-190l47 45v235h-130v-238l44 -42h-187l40 42v523l-45 40h185l-37 -43v-238h130v241l-41 40h188z" />
    <glyph glyph-name="i" unicode="i" horiz-adv-x="231" 
d="M1 605h209l-42 -30v-532l43 -43h-206l43 41v531l-47 33v0z" />
    <glyph glyph-name="y" unicode="y" horiz-adv-x="416" 
d="M-3 605h181l-30 -41l76 -171l74 171l-34 41h126l-35 -41l-99 -236v-285l36 -43h-188l40 46v279l-102 239l-45 41v0z" />
    <glyph glyph-name="b" unicode="b" horiz-adv-x="420" 
d="M244 312q47 -4 84 -21q16 -7 31 -18t26 -26.5t18 -36t6 -46.5q-3 -74 -45 -112q-22 -21 -56 -31.5t-66 -15.5q-38 -5 -78 -5h-164l67 40v520l-56 45h191q15 0 42.5 -5t54.5 -20t47.5 -43.5t22.5 -76.5q1 -49 -18 -77.5t-43 -44.5q-28 -18 -64 -26zM169 334q35 -1 61 11
q11 5 22 13.5t19 22t12.5 32t3.5 43.5q-2 44 -20.5 66.5t-40.5 32.5q-26 11 -57 12v-233zM304 168q1 36 -14 58.5t-33 36.5q-16 11 -32 16t-29 7q-15 2 -29 1v-247q11 -1 23 1q11 2 23.5 5t26.5 11q23 13 43 39.5t21 71.5z" />
    <glyph glyph-name="o" unicode="o" horiz-adv-x="430" 
d="M376 498q20 -39 30 -89.5t10 -105.5q0 -32 -4 -64.5t-11.5 -63t-18.5 -57.5t-24 -48q-28 -45 -67 -63t-83 -18t-86 23t-71 67q-29 42 -40 100.5t-11 123.5q0 58 9.5 109.5t32.5 93.5q29 53 72.5 83.5t93.5 30.5q51 0 95 -32.5t73 -89.5zM207 33q22 0 40.5 21t32 57
t21.5 85.5t8 106.5q0 58 -8 107.5t-22 86.5t-32.5 58t-40.5 21q-21 0 -40.5 -21t-33.5 -58t-22.5 -86.5t-8.5 -107.5q0 -57 8.5 -106.5t23 -85.5t34 -57t40.5 -21z" />
    <glyph glyph-name="x" unicode="x" horiz-adv-x="486" 
d="M-10 605h189l-27 -31l83 -167l80 165l-28 33h140l-47 -33l-113 -228l154 -303l58 -41h-231l53 36l-95 196l-84 -191l43 -41h-165l57 41l117 258l-133 268l-51 38v0z" />
    <glyph glyph-name="n" unicode="n" horiz-adv-x="409" 
d="M0 0l50 42v521l-50 42h118l183 -343v309l-42 34h139l-32 -30v-575h-65l-183 369v-325l43 -44h-161v0z" />
    <glyph glyph-name="f" unicode="f" horiz-adv-x="375" 
d="M1 605h351v-214l-73 181h-119v-242h71l48 72v-181l-46 67h-73v-247l48 -41h-207l44 38v528z" />
    <glyph glyph-name="p" unicode="p" horiz-adv-x="379" 
d="M169 334q35 -1 61 11q11 5 22 13.5t19 22t12.5 32t3.5 43.5q-2 44 -20.5 66.5t-40.5 32.5q-26 11 -57 12v-233zM0 0l67 40v520l-56 45h191q15 0 43 -5t55 -20t47.5 -43.5t21.5 -76.5q1 -42 -10 -71t-28.5 -48t-40.5 -29.5t-45.5 -15t-43 -5.5t-34.5 0v-251l66 -40h-233z
" />
    <glyph glyph-name="r" unicode="r" horiz-adv-x="466" 
d="M0 0l67 40v520l-56 45h191q15 0 43 -5t55 -20t47.5 -43.5t21.5 -76.5q1 -46 -11.5 -77.5t-30 -51t-37 -28.5t-31.5 -9l136 -253l53 -41h-154l-127 262v-222l66 -40h-233zM169 334q35 -1 61 11q11 5 22 13.5t19 22t12.5 32t3.5 43.5q-2 44 -20.5 66.5t-40.5 32.5
q-26 11 -57 12v-233z" />
    <glyph glyph-name="u" unicode="u" horiz-adv-x="401" 
d="M198 605l-40 -38v-406q0 -30 5 -53q5 -20 16 -36t34 -16q27 0 40.5 17t18.5 38q6 25 6 56v399l-37 39h148l-40 -38v-395q1 -48 -14 -86q-6 -16 -17 -31.5t-27.5 -27.5t-39 -19.5t-53.5 -7.5t-54 7.5t-39.5 19.5t-27.5 27.5t-17 32.5q-16 39 -14 88v390l-46 40h198z" />
    <glyph glyph-name="H" unicode="H" horiz-adv-x="773" 
d="M667 629v-712l106 -82h-322l105 80v323h-322v-331l114 -72h-349l119 72v722l-119 71h348l-113 -71v-335h322v335l-106 71h322zM150 138l26 -237l31 237l-28 47zM148 382l30 -48l29 48l-30 231zM178 300l-29 -38l29 -39l27 39zM583 138l26 -237l31 237l-28 47zM581 382
l30 -48l29 48l-30 231zM611 300l-29 -38l29 -39l27 39z" />
    <glyph glyph-name="I" unicode="I" horiz-adv-x="355" 
d="M240 -93l114 -72h-355l119 72v722l-119 71h354l-113 -71v-722zM150 138l29 -237l30 237l-29 47zM148 382l30 -48l31 48l-30 231zM178 300l-29 -38l29 -39l31 39z" />
    <glyph glyph-name="L" unicode="L" horiz-adv-x="615" 
d="M1 -165l106 53v741l-106 71h310l-90 -71v-738h227l166 150l-65 -206h-548zM137 138l29 -237l30 237l-29 47zM135 382l30 -48l31 48l-30 231zM165 300l-29 -38l29 -39l31 39z" />
    <glyph glyph-name="A" unicode="A" horiz-adv-x="798" 
d="M456 -165l94 74l-75 329h-198l-87 -334l101 -69h-292l120 71l200 723l-149 71h305l208 -791l115 -74h-342zM462 294l-79 323l-88 -323h167zM531 140l83 -224l-28 238l-38 39zM471 376l41 -39l16 53l-85 217zM520 304l-19 -44l37 -31l17 44z" />
    <glyph glyph-name="N" unicode="N" horiz-adv-x="735" 
d="M17 -165l124 75v718l-139 72h200l383 -548v477l-96 71h244l-83 -71v-820l-437 677v-577l100 -74h-296zM455 183l154 -183l-106 215l-49 24zM320 385l51 -23l-2 56l-153 176zM390 334l-3 -48l45 -17l1 47z" />
    <glyph glyph-name="E" unicode="E" horiz-adv-x="647" 
d="M0 700h571l55 -205l-142 149h-263v-350h177l69 134v-321l-67 131h-179v-338h270l136 136l-56 -201h-569l100 68v726zM133 149l26 -237l31 237l-28 47zM131 393l30 -48l29 48l-30 231zM161 311l-29 -38l29 -39l27 39z" />
    <glyph glyph-name="F" unicode="F" horiz-adv-x="615" 
d="M0 700h571l42 -205l-129 149h-263v-350h177l69 134v-321l-67 131h-179v-338l97 -65h-316l100 68v726zM133 149l26 -237l31 237l-28 47zM131 393l30 -48l29 48l-30 231zM161 311l-29 -38l29 -39l27 39z" />
    <glyph glyph-name="t" unicode="t" horiz-adv-x="355" 
d="M0 396v209h348v-211l-69 165h-47v-518l44 -41h-202l45 39v520h-53z" />
    <glyph glyph-name="z" unicode="z" horiz-adv-x="357" 
d="M261 42l75 232v-274h-336l209 566h-126l-83 -176v215h336l-211 -563h136z" />
    <glyph glyph-name="T" unicode="T" horiz-adv-x="830" 
d="M3 504l97 196h645l85 -196l-176 139h-174v-741l100 -67h-322l105 65v743h-184zM394 159l26 -237l31 237l-28 47zM392 403l30 -48l29 48l-30 231zM422 321l-29 -38l29 -39l27 39z" />
    <glyph glyph-name="c" unicode="c" horiz-adv-x="353" 
d="M334 263v-235q-20 -11 -41 -20q-18 -8 -40.5 -13.5t-44.5 -5.5q-45 0 -86.5 22.5t-70.5 67.5q-29 42 -40 100.5t-11 123.5q0 59 9.5 110t32.5 93q29 52 72.5 81.5t93.5 32.5q39 2 63.5 -3t38.5 -12q16 -9 24 -20v-207l-89 192q-13 8 -39 5q-22 -2 -41 -23.5t-33.5 -57.5
t-22.5 -84.5t-8 -106.5q0 -57 8.5 -106.5t23 -86t33.5 -57t41 -20.5q9 0 20 4.5t18 11.5z" />
    <glyph glyph-name="m" unicode="m" horiz-adv-x="597" 
d="M0 0l50 42v521l-50 42h163l128 -346l139 346h152l-52 -42v-523l48 -40h-212l53 40v395l-153 -435l-148 435v-391l43 -44h-161z" />
    <glyph glyph-name="k" unicode="k" horiz-adv-x="468" 
d="M152 40l43 -40h-195l50 42v529l-48 34h193l-43 -34v-196l129 197l-28 33h136l-47 -33l-143 -223l204 -308l58 -41h-234l53 36l-128 202v-198z" />
    <glyph glyph-name="q" unicode="q" horiz-adv-x="500" 
d="M-21 -48q2 20 13.5 35.5t27 26t34 16t35.5 6.5q-11 9 -20.5 19.5t-17.5 23.5q-29 42 -40 100.5t-11 123.5q0 58 9.5 109.5t32.5 93.5q29 53 72.5 83.5t93.5 30.5q51 0 95 -32.5t73 -89.5q20 -39 30 -89.5t10 -105.5q0 -32 -4 -64.5t-11.5 -63t-18.5 -57.5t-24 -48
q-14 -23 -32 -38.5t-38 -25.5q14 -15 32 -26t35 -18q18 -9 38 -14l161 38l-147 -121q-19 -3 -35 -2t-28.5 4.5t-21.5 8t-14 7.5q-29 18 -50 38t-43.5 36.5t-50.5 26.5t-70 8q-29 -2 -58.5 -14t-43.5 -44zM101 303q0 -48 6 -90.5t16.5 -77t25 -59t31.5 -35.5q20 -1 40 -6
q19 6 35.5 29t28.5 58.5t18.5 81.5t6.5 99q0 58 -8 107.5t-22 86.5t-32.5 58t-40.5 21q-21 0 -40.5 -21t-33.5 -58t-22.5 -86.5t-8.5 -107.5z" />
    <glyph glyph-name="j" unicode="j" horiz-adv-x="304" 
d="M296 605l-46 -40v-390q0 -49 -15 -88q-7 -17 -17.5 -32.5t-27 -28t-39 -19.5t-53.5 -7q-29 0 -48 8t-30 17q-13 11 -20 24l24 26q4 -7 12 -11q7 -4 18.5 -7t28.5 -1q22 2 33.5 18t16.5 36q5 23 5 51v406l-48 38h206z" />
    <glyph glyph-name="v" unicode="v" horiz-adv-x="457" 
d="M0 605h202l-45 -41l90 -328l77 329l-56 40h177l-58 -41l-138 -564h-46l-154 564z" />
    <glyph glyph-name="w" unicode="w" horiz-adv-x="733" 
d="M0 605h202l-45 -41l90 -328l77 328l-56 41h209l-45 -41l90 -328l77 329l-56 40h177l-58 -41l-138 -564h-46l-121 442l-108 -442h-46l-154 564z" />
    <glyph glyph-name="g" unicode="g" horiz-adv-x="389" 
d="M372 277l-38 -42v-207q-20 -11 -41 -20q-18 -8 -40.5 -13.5t-44.5 -5.5q-45 0 -86.5 22.5t-70.5 67.5q-29 42 -40 100.5t-11 123.5q0 59 9.5 110t32.5 93q29 52 72.5 81.5t93.5 32.5q39 2 63.5 -3t38.5 -12q16 -9 24 -20v-194l-89 179q-13 8 -39 5q-22 -2 -41 -23.5
t-33.5 -57.5t-22.5 -84.5t-8 -106.5q0 -57 8.5 -106.5t23 -86t33.5 -57t41 -20.5q9 0 20 4.5t18 11.5v185l-39 43h166z" />
    <glyph glyph-name="s" unicode="s" horiz-adv-x="360" 
d="M231 552q-20 9 -39 13q-17 2 -35.5 -1.5t-34.5 -21.5q-23 -26 -20 -49.5t22 -48.5t49.5 -51.5t63.5 -57.5q37 -35 58.5 -62t31 -50.5t11 -46t0.5 -49.5q-2 -42 -20 -67t-43 -38.5t-51.5 -18t-46.5 -4.5q-45 -1 -75 4.5t-47 12.5q-20 8 -31 18v231l78 -203q11 -10 25 -15
q12 -5 28.5 -7.5t36.5 2.5q19 4 30 14.5t16.5 25t5 31.5t-4.5 35q-8 35 -34.5 61t-56.5 52q-24 20 -43.5 37.5t-35.5 34.5t-27 34t-17 37q-14 46 -6.5 84.5t29.5 65.5t55 42t70 15t63.5 -4.5t43.5 -10.5q20 -7 34 -16v-206z" />
    <glyph glyph-name="B" unicode="B" horiz-adv-x="647" 
d="M379 281q67 -5 120 -30q22 -11 43.5 -26.5t37.5 -37t25.5 -51t8.5 -66.5q-2 -54 -18 -93t-46 -67q-32 -29 -80 -44.5t-94 -22.5q-54 -8 -111 -8h-265l125 66v728l-118 71h312q14 0 37 -3t49 -11t52 -22t48 -37t36 -56t16 -79q1 -35 -6 -62t-19 -48.5t-28 -37.5t-33 -27
q-40 -26 -92 -36zM243 313q62 -2 110 16q21 7 40 19.5t34 31.5t23 45.5t7 62.5q-2 31 -11.5 54t-25 40t-34.5 28.5t-39 18.5q-47 17 -104 17v-333zM505 79q-4 51 -32 85.5t-70 61.5q-21 12 -48.5 16.5t-53.5 5.5q-30 1 -61 -2v-353q30 -1 60 2q26 2 53.5 6.5t48.5 15.5
q22 11 42 25t34.5 33t22 43.5t4.5 57.5v3zM156 145l26 -237l31 237l-28 47zM154 389l30 -48l29 48l-30 231zM184 307l-29 -38l29 -39l27 39zM501 561l-26 -74l28 -80l32 80zM553 158l-26 -86l28 -97l32 97z" />
    <glyph glyph-name="D" unicode="D" horiz-adv-x="611" 
d="M591 307q7 -131 -29 -235q-15 -44 -42 -86.5t-69 -76t-101.5 -54t-140.5 -20.5h-205l76 62v739l-80 64h194q108 0 194 -40q37 -17 72.5 -45t63.5 -70.5t46.5 -101t20.5 -136.5zM333 -86q18 10 43.5 30.5t49 62t39.5 109.5t13 173q0 82 -19 152q-8 30 -21.5 59.5t-34 56
t-49 46.5t-66.5 31q-7 2 -20 3t-26.5 1.5t-26.5 0.5h-20v-740q31 -1 58 1q23 2 46 4.5t34 9.5zM107 145l26 -237l31 237l-28 47zM105 389l30 -48l29 48l-30 231zM135 307l-29 -38l29 -39l27 39zM400 614q10 -10 22 -24t23 -29t19.5 -30t12.5 -27q6 -17 11.5 -41.5t9.5 -57.5
l31 -48l26 48q-2 13 -7.5 28.5t-13 31.5t-15.5 29.5t-14 22.5q-16 22 -43 49t-62 48zM536 323l-29 -38l29 -39l27 39zM405 -77q35 21 60 50.5t45 60.5q19 29 32.5 63.5t16.5 60.5l-26 48l-31 -48q0 -26 -2.5 -49.5t-14.5 -58.5t-35.5 -71t-44.5 -56z" />
    <glyph glyph-name="K" unicode="K" horiz-adv-x="715" 
d="M186 -97l94 -68h-310l102 72v736l-93 59h293l-86 -59v-305l246 305l-68 59h246l-103 -59l-244 -307l337 -431l97 -70h-327l95 63l-279 352v-347zM103 145l26 -237l31 237l-28 47zM101 389l30 -48l29 48l-30 231zM131 307l-29 -38l29 -39l27 39zM247 223l262 -286
l-217 321l-64 36z" />
    <glyph glyph-name="M" unicode="M" horiz-adv-x="957" 
d="M-2 -165l100 61v743l-101 61h205l268 -622l269 622h201l-109 -61v-747l103 -57h-318l95 57v566l-283 -623l-252 623v-560l90 -63h-268zM746 138l29 -237l30 237l-29 47zM744 382l30 -48l31 48l-30 231zM774 300l-29 -38l29 -39l31 39zM331 172l116 -210l-63 230l-43 34z
M236 396l47 -34l8 55l-118 202zM296 331l-13 -46l42 -25l10 45z" />
    <glyph glyph-name="P" unicode="P" horiz-adv-x="563" 
d="M225 306q66 0 118 19q22 8 43 21t36.5 32.5t24.5 46t8 62.5q-2 31 -12.5 54.5t-27 40.5t-37 28.5t-41.5 18.5q-50 17 -112 17v-340zM-1 -165l109 62v739l-110 64h287q14 0 39 -3t54.5 -11t59.5 -22t54.5 -37t40.5 -56t17 -79q2 -60 -16.5 -101t-48 -68t-66.5 -42
t-73.5 -22t-69 -8t-52.5 0v-354l110 -62h-335zM137 150l29 -237l30 237l-29 47zM135 394l30 -48l31 48l-30 231zM165 312l-29 -38l29 -39l31 39zM499 557l-26 -74l28 -80l32 80z" />
    <glyph glyph-name="R" unicode="R" horiz-adv-x="758" 
d="M4 -165l113 65v724l-119 76h338q14 0 37 -3t49 -11t53 -22t48.5 -37t35.5 -56t16 -79q2 -50 -12 -86.5t-37.5 -61.5t-52 -41t-56 -24.5t-50.5 -11.5t-35 -3l285 -361l127 -68h-233l-279 374v-309l113 -65h-341zM236 313q70 -2 124 16q23 7 44.5 19.5t38 31.5t25.5 45
t7 62q-2 34 -13.5 59.5t-29 43t-38.5 29t-43 17.5q-51 15 -115 10v-333zM148 150l29 -237l30 237l-29 47zM146 394l30 -48l31 48l-30 231zM176 312l-29 -38l29 -39l31 39zM287 184l249 -270l-203 305l-64 34zM519 557l-26 -74l28 -80l32 80z" />
    <glyph glyph-name="V" unicode="V" horiz-adv-x="751" 
d="M-3 702l328 -1l-99 -60l190 -594l140 593l-105 62h291l-113 -63l-198 -804h-66l-263 803zM291 162l101 -217l-47 235l-41 36zM212 392l44 -36l11 55l-102 209zM266 324l-15 -45l40 -28l13 45z" />
    <glyph glyph-name="W" unicode="W" horiz-adv-x="1140" 
d="M-26 700h345l-118 -58l183 -588l153 588l-101 58h311l-106 -58l181 -567l144 568l-107 57h301l-117 -58l-218 -807h-68l-192 652l-173 -652h-72l-243 807zM254 162l93 -221l-39 237l-39 37zM183 394l43 -37l13 54l-95 213zM235 324l-17 -44l39 -29l14 44zM699 162
l93 -221l-39 237l-39 37zM628 394l43 -37l13 54l-95 213zM680 324l-17 -44l39 -29l14 44z" />
    <glyph glyph-name="X" unicode="X" horiz-adv-x="769" 
d="M6 702h302l-77 -59l133 -242l131 243l-73 56h246l-106 -56l-164 -304l235 -442l123 -63h-369l112 60l-158 330l-157 -321l105 -69h-293l119 69l190 374l-192 364zM410 147l158 -240l-108 267l-47 28zM294 360l49 -28l1 56l-163 236zM358 302l-7 -47l44 -21l5 47z" />
    <glyph glyph-name="Y" unicode="Y" horiz-adv-x="663" 
d="M247 702l-74 -58l167 -290l157 290l-78 58h231l-86 -58l-195 -354v-386l91 -69h-302l102 72v379l-199 358l-89 58h275zM287 151l34 -271l25 271l-29 47zM230 384l48 -30l3 55l-157 220zM315 317l-29 -38l29 -39l31 39z" />
    <glyph glyph-name="U" unicode="U" horiz-adv-x="731" 
d="M324 702l-95 -58v-578q1 -48 19 -85q7 -16 19 -31.5t30 -27.5t43 -19t58 -7q30 0 52.5 7.5t38.5 20t26.5 28.5t17.5 33q16 40 16 90v567l-84 60h249l-90 -58v-562q2 -69 -24 -124q-11 -23 -28.5 -45.5t-44.5 -39.5t-64 -27.5t-86 -10.5q-56 0 -97.5 11t-71.5 28.5
t-50.5 40t-32.5 46.5q-29 55 -29 125v555l-97 61h325zM134 404l30 -48l29 48l-30 231zM164 322l-29 -38l29 -39l27 39zM240 -86q-23 28 -34 60.5t-16 68.5q-4 27 -1.5 53.5t2.5 52.5l-29 48l-28 -48q0 -40 5 -70t16 -56q14 -34 36 -63t49 -46z" />
    <glyph glyph-name="S" unicode="S" horiz-adv-x="547" 
d="M364 638q-39 9 -75 13q-31 3 -62.5 -1t-50.5 -21q-38 -36 -33 -72.5t36 -75.5t79 -81t97 -88q55 -51 87.5 -94t50 -80.5t22 -70t4.5 -61.5q-1 -61 -29.5 -98t-68.5 -57t-83 -26.5t-73 -6.5q-66 -1 -109 7.5t-69 18.5q-30 11 -46 26l-70 198l169 -161q18 -13 41 -21
q20 -7 46 -10.5t56 2.5q28 6 51 15t40 25.5t26 42.5t9 66q0 27 -18 58.5t-43.5 63t-54.5 60t-51 47.5q-35 29 -74.5 59.5t-74 65t-57.5 75t-24 91.5q-1 36 17.5 67.5t51.5 55t78.5 37t99.5 13.5t93.5 -7t65.5 -16q30 -11 50 -24l52 -178zM73 595q1 -41 10 -78.5t20 -61.5
q4 -10 12 -24t18 -28t21 -27t22 -21l54 -1l-26 50q-27 20 -45.5 37.5t-30.5 30.5q-8 10 -17 25t-16.5 32t-13 34.5t-8.5 31.5zM268 319l8 -47l48 -7l-9 47zM466 -53q9 40 5 79t-12 74q-8 34 -23.5 67.5t-32.5 53.5l-52 15l13 -56q18 -18 33.5 -36.5t32.5 -50.5
q8 -17 15 -36.5t11.5 -39t7 -38t2.5 -32.5z" />
    <glyph glyph-name="C" unicode="C" horiz-adv-x="635" 
d="M608 47l-60 -163q-22 -15 -54 -27q-27 -11 -66.5 -19.5t-92.5 -8.5q-35 0 -70.5 8t-69 23.5t-63.5 39.5t-53 55q-44 57 -61.5 139.5t-17.5 172.5q0 81 15 152.5t50 130.5q22 36 53 65t66 49t73.5 31t77.5 13q66 2 107.5 -5t64.5 -17q27 -11 41 -26l63 -108l-168 89
q-12 6 -37.5 8t-45.5 1q-37 -1 -77.5 -20.5t-75 -64t-57 -117.5t-22.5 -181q-1 -99 20.5 -173t55.5 -122.5t77 -71.5t85 -20q11 1 23.5 3.5t24.5 6.5t21.5 8.5t15.5 9.5zM204 628q-35 -21 -62 -48t-43 -49q-6 -9 -14 -22.5t-15.5 -29.5t-13.5 -31.5t-7 -28.5l26 -48l31 48
q4 33 9.5 57.5t11.5 41.5q4 12 12.5 27t19.5 30t22.5 29t22.5 24zM40 286l27 -39l29 39l-29 38zM198 -87q-21 20 -44.5 56t-35.5 71t-14.5 58.5t-2.5 49.5l-31 48l-26 -48q3 -26 16.5 -60.5t32.5 -63.5q20 -31 45 -60.5t60 -50.5z" />
    <glyph glyph-name="G" unicode="G" horiz-adv-x="763" 
d="M751 242l-118 -68v-282q-25 -19 -63 -34q-32 -13 -82 -23t-119 -10q-99 0 -169.5 35.5t-114.5 95.5t-64.5 140.5t-20.5 170.5q0 87 23 165.5t69 139.5t115.5 98t161.5 42q69 3 111.5 -4t67.5 -17q29 -11 43 -28l44 -180l-172 168q-7 3 -19 4.5t-26 2t-28.5 0.5t-25.5 -1
q-54 -3 -96.5 -34t-72 -83t-45.5 -122t-16 -151t15.5 -150t44.5 -120.5t72 -82.5t99 -35q26 -2 43.5 -2.5t33 2.5t33 11t43.5 25v258l-123 69h356zM210 619q-35 -21 -62 -48t-43 -49q-6 -9 -14 -22.5t-15.5 -29.5t-13.5 -31.5t-7 -28.5l26 -48l31 48q4 33 9.5 57.5
t11.5 41.5q4 12 12.5 27t19.5 30t22.5 29t22.5 24zM40 279l27 -39l29 39l-29 38zM204 -93q-21 20 -44.5 56t-35.5 71t-14.5 58.5t-2.5 49.5l-31 48l-26 -48q3 -26 16.5 -60.5t32.5 -63.5q20 -31 45 -60.5t60 -50.5zM545 -35l30 -48l29 48l-30 231z" />
    <glyph glyph-name="O" unicode="O" horiz-adv-x="759" 
d="M640 540q32 -54 50 -124.5t18 -148.5q0 -44 -7 -89.5t-20 -88t-31.5 -80.5t-40.5 -67q-48 -63 -114.5 -88.5t-140.5 -25.5q-75 0 -146 32.5t-122 93.5q-48 59 -67 140.5t-19 172.5q0 81 16 154t56 130q24 37 55 66.5t67.5 50.5t77 32t82.5 11q87 0 161.5 -45.5
t124.5 -125.5zM353 -118q57 1 99 31.5t70 82.5t42 121.5t14 149.5q0 81 -15 152t-44.5 124.5t-72 84t-96.5 29.5q-51 -1 -92.5 -32t-70.5 -83.5t-45 -123t-16 -151.5q0 -80 15.5 -150t44.5 -122.5t71.5 -83t95.5 -29.5zM203 619q-35 -21 -62 -48t-43 -49q-6 -9 -14 -22.5
t-15.5 -29.5t-13.5 -31.5t-7 -28.5l26 -48l31 48q4 33 9.5 57.5t11.5 41.5q4 12 12.5 27t19.5 30t22.5 29t22.5 24zM33 279l27 -39l29 39l-29 38zM197 -93q-21 20 -44.5 56t-35.5 71t-14.5 58.5t-2.5 49.5l-31 48l-26 -48q3 -26 16.5 -60.5t32.5 -63.5q20 -31 45 -60.5
t60 -50.5zM501 619q10 -10 22 -24t23 -29t19.5 -30t12.5 -27q6 -17 11.5 -41.5t9.5 -57.5l31 -48l26 48q-2 13 -7.5 28.5t-13 31.5t-15.5 29.5t-14 22.5q-16 22 -43 49t-62 48zM644 317l-29 -38l29 -39l27 39zM507 -93q35 21 60 50.5t45 60.5q19 29 32.5 63.5t16.5 60.5
l-26 48l-31 -48q0 -26 -2.5 -49.5t-14.5 -58.5t-35.5 -71t-44.5 -56z" />
    <glyph glyph-name="J" unicode="J" horiz-adv-x="516" 
d="M2 -79q-9 38 6.5 64t53.5 27q13 0 24.5 -5.5t20 -15.5t11.5 -23t-2 -28q-8 -26 0.5 -42.5t42.5 -17.5q15 0 27.5 7t22 19.5t16.5 28.5t12 33q11 40 17 90v579l-113 63h362l-123 -65v-557q1 -71 -21 -126q-9 -24 -24.5 -46.5t-39.5 -40t-57 -28.5t-77 -11q-39 0 -66.5 10
t-46.5 24.5t-30 31t-16 29.5zM243 -109q27 17 49 46t36 63q11 26 16 56t5 70l-28 48l-29 -48q0 -26 2.5 -52.5t-1.5 -53.5q-5 -36 -16 -68.5t-34 -60.5zM320 612l-30 -231l29 -48l30 48zM292 261l27 -39l29 39l-29 38z" />
    <glyph glyph-name="Q" unicode="Q" horiz-adv-x="775" 
d="M-12 -291q19 38 44 66t53.5 47t58 29t57.5 13q-32 17 -61.5 39t-53.5 51q-48 59 -67 140.5t-19 172.5q0 81 16 154t56 130q24 37 55 66.5t67.5 50.5t77 32t82.5 11q87 0 161.5 -45.5t124.5 -125.5q32 -54 50 -124.5t18 -148.5q0 -44 -7 -89.5t-20 -88t-31.5 -80.5
t-40.5 -67q-30 -39 -62.5 -61.5t-76.5 -34.5q24 -5 40.5 -14t36.5 -20q16 -8 32 -12t30 -5q16 -2 30 0l130 105q-18 -37 -34 -72q-14 -30 -28.5 -63t-24.5 -57q-50 -6 -86 3t-69 24.5t-69 34t-86 31.5q-47 12 -99.5 10.5t-103.5 -15t-96 -37.5t-78 -56zM353 -118
q57 1 99 31.5t70 82.5t42 121.5t14 149.5q0 81 -15 152t-44.5 124.5t-72 84t-96.5 29.5q-51 -1 -92.5 -32t-70.5 -83.5t-45 -123t-16 -151.5q0 -80 15.5 -150t44.5 -122.5t71.5 -83t95.5 -29.5zM507 -93q35 21 60 50.5t45 60.5q19 29 32.5 63.5t16.5 60.5l-26 48l-31 -48
q0 -26 -2.5 -49.5t-14.5 -58.5t-35.5 -71t-44.5 -56zM197 -93q-21 20 -44.5 56t-35.5 71t-14.5 58.5t-2.5 49.5l-31 48l-26 -48q3 -26 16.5 -60.5t32.5 -63.5q20 -31 45 -60.5t60 -50.5zM203 619q-35 -21 -62 -48t-43 -49q-6 -9 -14 -22.5t-15.5 -29.5t-13.5 -31.5t-7 -28.5
l26 -48l31 48q4 33 9.5 57.5t11.5 41.5q4 12 12.5 27t19.5 30t22.5 29t22.5 24zM501 619q10 -10 22 -24t23 -29t19.5 -30t12.5 -27q6 -17 11.5 -41.5t9.5 -57.5l31 -48l26 48q-2 13 -7.5 28.5t-13 31.5t-15.5 29.5t-14 22.5q-16 22 -43 49t-62 48zM33 279l27 -39l29 39
l-29 38zM644 317l-29 -38l29 -39l27 39z" />
    <glyph glyph-name="d" unicode="d" horiz-adv-x="405" 
d="M392 331q5 -95 -19 -169q-10 -32 -27.5 -61.5t-44.5 -52.5t-65 -36.5t-89 -11.5h-144l53 43v519l-56 45h136q70 0 125 -28q24 -12 46.5 -31.5t40.5 -49.5t30 -71t14 -96zM203 55q12 7 29 21.5t32 43.5t24.5 76.5t8.5 121.5q3 57 -8 105q-5 21 -12.5 42t-19.5 39.5
t-29.5 33.5t-40.5 23q-10 3 -15 3h-15v-519q8 -1 16 0q16 2 30 10z" />
    <glyph glyph-name="zero" unicode="0" horiz-adv-x="593" 
d="M512 532q26 -54 39.5 -123.5t13.5 -145.5q0 -44 -5.5 -88.5t-16 -86.5t-25 -79t-32.5 -66q-38 -61 -90.5 -86t-112.5 -25t-117 31.5t-96 91.5q-40 58 -55 139t-15 169q0 80 12.5 151.5t44.5 128.5q39 72 99 114t127 42q70 0 129 -44.5t100 -122.5zM281 -118q30 0 58.5 30
t51 82t36 121.5t13.5 147.5q0 79 -14 150.5t-36.5 124.5t-51 84.5t-58.5 31.5q-29 0 -58 -31.5t-52 -84.5t-37 -124.5t-14 -150.5q0 -78 14.5 -147.5t37.5 -121.5t52 -82t58 -30zM182 628q-35 -21 -55.5 -48t-36.5 -49q-6 -9 -13.5 -22.5t-14.5 -29.5t-12 -31.5t-6 -28.5
l26 -48l31 48q4 33 7.5 57.5t9.5 41.5q4 12 10.5 27t15 30t18 29t20.5 24zM35 286l27 -39l29 39l-29 38zM194 -113q-11 10 -24 26.5t-25 36.5t-22 41t-14 39q-7 31 -10 61.5t-3 56.5l-31 48l-26 -48q3 -26 12.5 -61.5t25.5 -66.5q25 -49 53.5 -80.5t63.5 -52.5zM379 628
q10 -10 20 -24t18.5 -29t15 -30t10.5 -27q6 -17 9.5 -41.5t7.5 -57.5l31 -48l26 48q-2 13 -6.5 28.5t-11.5 31.5t-14.5 29.5t-13.5 22.5q-16 22 -36.5 49t-55.5 48zM499 324l-29 -38l29 -39l27 39zM367 -113q35 21 63.5 52.5t53.5 80.5q16 31 25.5 66.5t12.5 61.5l-26 48
l-31 -48q0 -26 -3 -56.5t-10 -61.5q-4 -18 -14 -39t-22 -41t-25.5 -36.5t-23.5 -26.5z" />
    <glyph glyph-name="one" unicode="1" horiz-adv-x="500" 
d="M2 522l189 177h85v-778l137 -86h-388l134 80v654zM191 138l29 -237l30 237l-29 47zM189 382l30 -48l31 48l-30 231zM219 300l-29 -38l29 -39l31 39z" />
    <glyph glyph-name="two" unicode="2" horiz-adv-x="599" 
d="M82 640q19 20 48 36q25 14 64 25t96 13q62 1 101 -21.5t61.5 -57t31 -75.5t10.5 -78q2 -54 -11 -102t-31.5 -87t-38 -67t-29.5 -41q-37 -49 -71 -93t-61 -77q-32 -40 -60 -73h240l148 107l-85 -213h-483q25 22 59 59q29 32 71.5 81.5t98.5 122.5q49 63 77.5 116.5
t43.5 96t20 73.5t5 49q1 28 -4 58.5t-17.5 57t-35 44t-56.5 18.5q-25 1 -43 -4t-29 -10q-14 -7 -23 -15q-52 -47 -92 -83q-17 -16 -33.5 -31t-28.5 -26.5t-19.5 -18.5t-6.5 -7t7.5 16t15.5 40.5t19.5 53.5t19.5 53.5t15 41.5t6 18zM185 -82l-60 -30l60 -29l250 30zM212 655
q36 2 71 -0.5t62 -20.5q22 -14 33 -35t23 -48l46 -32l3 50q-7 15 -18 30t-23.5 27.5t-25 21.5t-22.5 13q-26 9 -65 10.5t-84 -16.5zM442 479l-29 -38l29 -39l31 39z" />
    <glyph glyph-name="three" unicode="3" horiz-adv-x="545" 
d="M56 609q18 26 47 47q25 18 63 33.5t95 17.5q56 2 98.5 -12.5t70.5 -40.5t42 -60.5t13 -73.5q-2 -66 -25 -107t-50 -64q-32 -27 -72 -41q49 -15 88 -45q16 -13 32 -30t28 -39t19 -50t7 -62q-1 -79 -26 -128.5t-62 -78t-80.5 -38.5t-82.5 -9q-51 1 -87.5 7.5t-62.5 14.5
q-30 9 -51 21l-59 172l156 -135q14 -4 31 -8q14 -3 32 -5.5t38 -1.5q20 0 44.5 11.5t46 33.5t36 55.5t14.5 78.5q0 43 -10 75t-26.5 54.5t-37.5 37t-43 22.5q-52 19 -117 14q3 13 7 24q2 5 3 9l2 8l2 8q18 0 48.5 4.5t61 22t54 51t28.5 91.5q4 30 -3 56.5t-22 47t-36.5 33.5
t-46.5 16q-32 2 -50.5 -2t-28.5 -10q-11 -7 -15 -17l-162 -178zM425 588l-26 -74l28 -80l32 80zM452 152l-26 -74l28 -80l32 80z" />
    <glyph glyph-name="four" unicode="4" horiz-adv-x="636" 
d="M484 700v-577h84l-3.5 -11t-8.5 -24.5t-9.5 -24.5t-5.5 -11h-57v-147l121 -70h-370l134 72v145h-368v57l374 591h109zM92 124h277v448zM401 138l29 -237l30 237l-29 47zM399 382l30 -48l31 48l-30 231zM429 300l-29 -38l29 -39l31 39z" />
    <glyph glyph-name="five" unicode="5" horiz-adv-x="556" 
d="M435 700l91 -229l-171 125h-267v-244q16 19 41 35q20 14 51.5 24.5t73.5 10.5q66 0 116.5 -25t85 -64.5t53 -89t21.5 -99.5q5 -84 -15.5 -143.5t-55.5 -97.5t-79.5 -56t-86.5 -19q-62 -2 -107 5t-75 16q-35 11 -60 25l-51 177l158 -146q12 -8 28 -13q14 -5 32.5 -8.5
t42.5 -1.5q33 2 61.5 16.5t49.5 42t33.5 68t13.5 96.5q1 69 -14 117t-40.5 78.5t-59 44.5t-68.5 14q-39 0 -68 -17t-48.5 -38t-29.5 -38.5t-11 -17.5q-8 11 -18 16t-19 8q-11 3 -21 4v424h413zM469 211l-26 -74l28 -80l32 80zM136 678l-48 -30l48 -29l249 30z" />
    <glyph glyph-name="six" unicode="6" horiz-adv-x="620" 
d="M359 481l52 123q-9 13 -21 23q-11 8 -28 15t-43 8q-26 0 -57 -12.5t-58 -47t-44.5 -95t-15.5 -156.5q-1 -1 6 5t21 15.5t33 21t41.5 21t48 15.5t52.5 5q46 -2 91 -22t80 -56t56.5 -87t21.5 -114q0 -71 -22 -130t-60 -101t-88.5 -65.5t-108.5 -21.5q-57 1 -113.5 24
t-101.5 75.5t-72.5 138.5t-27.5 214q0 88 21.5 166.5t62 137t99 93.5t132.5 38q46 1 81 -9t60 -27.5t42 -39.5t28 -44zM144 118q0 -46 14.5 -89t38.5 -76.5t53.5 -53.5t59.5 -20q31 0 61 20t54 53.5t38.5 77t14.5 89.5t-15.5 89.5t-40 77.5t-55 55t-60.5 21q-31 0 -60 -21
t-52 -55.5t-37 -78.5t-14 -89zM214 645q-21 -11 -39 -25t-33.5 -29.5t-27.5 -30t-19 -26.5q-6 -9 -13.5 -24.5t-14 -33t-12 -34.5t-7.5 -30l23 -48l37 48q2 16 2.5 27.5t1.5 23t3.5 24.5t9.5 34q4 12 14 29t22.5 35t26.5 34t26 26zM31 281l31 -40l31 40l-31 38zM203 -113
q-25 20 -49 60t-41 81q-11 29 -10.5 59t0.5 56l-35 48l-26 -48q2 -13 6 -31t10.5 -37.5t14.5 -39t18 -34.5q22 -35 46.5 -64t65.5 -50zM530 213l-31 -74l33 -80l38 80z" />
    <glyph glyph-name="seven" unicode="7" horiz-adv-x="676" 
d="M24 -164l466 808h-320l-170 -154l85 210h564l-492 -866zM379 398l-3 -55l52 23l99 240zM312 282l2 -50l45 17v51zM134 -83l156 215l-3 54l-44 -22z" />
    <glyph glyph-name="nine" unicode="9" horiz-adv-x="620" 
d="M156 55l-52 -123q13 -16 34 -28q18 -11 46.5 -19.5t70.5 -6.5q31 1 65.5 15t64 49.5t48 97t17.5 157.5q1 1 -15 -12t-44.5 -29.5t-65.5 -30t-77 -11.5q-47 1 -91.5 21.5t-79.5 56.5t-56.5 87t-21.5 114q0 70 22 129.5t60 101.5t88.5 65t108.5 22q57 -1 113 -24t101 -75.5
t73 -139t28 -213.5q0 -89 -24.5 -167t-68.5 -136.5t-105 -93.5t-135 -38q-47 -2 -91 8.5t-80.5 28t-63 39.5t-37.5 44zM450 418q0 46 -14.5 89t-38.5 76.5t-53.5 53.5t-59.5 20q-31 0 -61 -20t-54 -53.5t-38.5 -77t-14.5 -89.5t15.5 -89.5t40 -77.5t55 -55t60.5 -21
q31 0 60 21t52 55.5t37 78.5t14 89zM380 -109q21 10 39 24.5t33.5 30t27 30t19.5 26.5q6 9 13.5 24.5t14 33t12 34.5t7.5 30l-23 48l-37 -48q-2 -17 -2.5 -28t-1.5 -22.5t-3.5 -24.5t-9.5 -34q-4 -12 -14 -29t-22.5 -35t-26.5 -34t-26 -26zM563 255l-31 40l-31 -40l31 -38z
M391 649q25 -20 49 -60t41 -81q11 -29 10.5 -59t-0.5 -56l35 -48l26 48q-2 13 -6 31t-10.5 37.5t-14.5 39t-18 34.5q-22 35 -46.5 64t-65.5 50zM64 323l31 74l-33 80l-38 -80z" />
    <glyph glyph-name="eight" unicode="8" horiz-adv-x="602" 
d="M-3 77q0 38 10.5 73.5t32 65t55 51.5t80.5 33q-64 22 -102 71t-38 120q0 48 15.5 88t47 69.5t79.5 46.5t113 18q52 1 98 -13t80 -41.5t54 -69.5t20 -98q0 -70 -36 -119.5t-95 -72.5q39 -11 71 -32.5t54 -51t34 -65t12 -73.5q0 -53 -20.5 -98.5t-58.5 -79.5t-92 -53.5
t-121 -19.5q-71 0 -125.5 20t-92 53.5t-56.5 79t-19 98.5zM107 73q0 -44 16.5 -82t42.5 -65t59.5 -41.5t66.5 -12.5q33 1 64.5 18t57 45t41 63.5t15.5 74.5t-15.5 74.5t-41 61.5t-57 41.5t-64.5 15.5q-35 0 -68 -15t-59 -41t-42 -61t-16 -76zM144 486q0 -33 10.5 -63
t30 -52.5t47 -35t60.5 -12.5q30 0 56.5 13t45.5 35.5t30 52t11 62.5q0 34 -11 65.5t-30.5 56t-45.5 39.5t-57 15q-34 0 -61.5 -15t-46.5 -39.5t-29 -56t-10 -65.5zM521 152l-26 -74l28 -80l32 80zM51 152l-31 -74l33 -80l32 80zM485 567l-26 -74l28 -80l32 80zM85 569
l-26 -74l28 -80l32 80z" />
    <glyph glyph-name="slash" unicode="/" horiz-adv-x="416" 
d="M352 701h47l-351 -866h-47z" />
    <glyph glyph-name="parenleft" unicode="(" horiz-adv-x="296" 
d="M283 736q-23 -19 -46 -44q-20 -21 -42 -50.5t-40 -67.5q-25 -51 -41.5 -122t-17.5 -162q-2 -95 14 -172.5t40 -136.5q18 -51 41 -86.5t43 -58.5q24 -27 47 -46l-15 -25q-28 22 -58 49q-26 23 -56 56t-58 74q-43 63 -68.5 139.5t-25.5 182.5q0 63 10.5 117t28.5 99.5
t41 83t48 66.5q25 31 49.5 54.5t44.5 39t32.5 24l12.5 8.5z" />
    <glyph glyph-name="parenright" unicode=")" horiz-adv-x="303" 
d="M15 758l12.5 -8.5t32.5 -24t44.5 -39t49.5 -54.5q25 -29 48 -66.5t41 -83t28.5 -99.5t10.5 -117q0 -106 -25.5 -182.5t-68.5 -139.5q-28 -41 -58 -74t-56 -56q-30 -27 -58 -49l-15 25q23 19 47 46q20 23 42.5 58.5t41.5 86.5q24 59 40 136.5t14 172.5q-1 91 -17.5 162
t-41.5 122q-18 38 -40 67.5t-42 50.5q-23 25 -46 44z" />
    <glyph glyph-name="exclam" unicode="!" horiz-adv-x="262" 
d="M-3 700h241l-21 -651h-95l-15 578zM115 -23h102v-143h-102v143zM142 372l30 -48l31 48l-30 237zM172 261l-29 -38l29 -39l31 39z" />
    <glyph glyph-name="dollar" unicode="$" horiz-adv-x="584" 
d="M546 446q2 -15 6 -31t5.5 -32t-1.5 -31.5t-15 -28.5q-67 -76 -133.5 -152t-137.5 -147q-18 -2 -35 -1t-33 4t-31.5 5.5t-28.5 3.5t-29 3t-31 4t-26.5 4t-14.5 4q-13 8 -15.5 21.5t-4.5 25.5q-2 27 -4.5 52.5t-6.5 51.5q-2 24 -6.5 47t-3.5 48q8 15 19.5 28.5t21.5 28.5
q35 38 68 76.5t68 77.5q16 20 39 46.5t43 51.5q5 7 13.5 10t17.5 4t17 1t11 1q44 5 88.5 5t88.5 5q7 -1 12 -5t6 -9q3 -17 5 -33.5t6 -33.5q6 -28 12 -57t10 -48zM95 376q-7 -9 -15.5 -19.5t-13.5 -21.5q11 -5 22 1t18 11q35 29 64.5 63.5t58.5 66.5q4 6 6.5 13t7.5 13
q2 10 2 22t-5 19q-34 -43 -73.5 -82.5t-71.5 -85.5zM41 136q6 -8 15 -2.5t17 13.5q2 4 8.5 13t5.5 26q2 14 -1.5 25t-15.5 20q-3 0 -8 2.5t-10.5 3.5t-10 -0.5t-6.5 -7.5q8 -44 6 -93zM245 54q0 15 -1 32t-6 32q-8 3 -16.5 7.5t-16.5 6.5q-15 2 -29.5 3t-27.5 6
q-18 -14 -34.5 -29.5t-32.5 -32.5v-6q15 -7 29.5 -9t29.5 -2.5t30.5 -0.5t33.5 -2q17 -2 25.5 -6t15.5 1zM417 344q9 9 12.5 21t4 24t-1 23t-1.5 17q-1 8 -5.5 26t-8.5 32q-6 2 -19.5 2.5t-25.5 -0.5q-20 2 -37.5 -2t-34.5 -9q-35 -28 -62 -60.5t-55 -65.5q-7 -10 -16 -19
t-17.5 -18.5t-15 -19.5t-8.5 -22q2 -18 2.5 -28.5t4.5 -22.5q2 -11 2.5 -19t2.5 -16q3 -13 18 -18.5t23 -7.5q9 -2 18 -5t19 -5t19 -1.5t18 5.5q18 25 39 48t42.5 46.5t43 46.5t39.5 48zM409 519q16 21 34 40.5t29 41.5q-41 4 -73 -1.5t-73 -6.5h-17q-2 0 -5.5 0.5
t-5.5 -1.5q0 -14 2 -22.5t4 -20.5q2 -10 3 -21.5t6 -19.5q14 -2 27 -1t29 2q11 2 21 1t19 9zM345 456q21 1 37.5 -12.5t26.5 -30.5q3 -10 -2.5 -23.5t-14.5 -28t-20 -27t-18 -20.5q-26 -28 -48.5 -57t-51.5 -55q-11 -9 -25.5 -16.5t-31.5 0.5q-23 12 -29.5 29.5t-11.5 36.5
q-4 14 -0.5 23t8.5 15q32 36 64 69t65 67q12 8 25 16.5t27 13.5zM386 385q6 8 4.5 17.5t-6.5 17.5q-8 7 -16 12.5t-20 3.5q-11 -5 -19.5 -10.5t-16.5 -10.5q-8 -6 -19.5 -17.5t-23 -23.5t-21.5 -22t-14 -13q-2 -3 -10 -11t-17.5 -18t-18 -21t-11.5 -19q-2 -5 -2 -14.5
t2 -19.5t7 -19t13 -15q14 -5 25 -1.5t19.5 11t16 16.5t13.5 17q13 15 26 29t31 33q6 8 15 19t17.5 22t15.5 21t10 16z" />
    <glyph glyph-name="period" unicode="." horiz-adv-x="170" 
d="M40 86h83v-86h-83v86z" />
    <glyph glyph-name="hyphen" unicode="-" horiz-adv-x="346" 
d="M58 292l249 -1v-81h-249v82z" />
    <glyph glyph-name="comma" unicode="," horiz-adv-x="172" 
d="M40 86h83v-86q-1 -32 -11.5 -53t-23.5 -34q-15 -15 -35 -24l-13 16q12 9 21 23q8 11 14 29t4 43h-39v86z" />
    <glyph glyph-name="semicolon" unicode=";" horiz-adv-x="174" 
d="M42 86h83v-86q-1 -32 -11.5 -53t-23.5 -34q-15 -15 -35 -24l-13 16q12 9 21 23q8 11 14 29t4 43h-39v86zM42 460h83v-86h-83v86z" />
    <glyph glyph-name="colon" unicode=":" horiz-adv-x="185" 
d="M48 86h83v-86h-83v86zM48 461h83v-86h-83v86z" />
    <glyph glyph-name="question" unicode="?" horiz-adv-x="529" 
d="M59 660q14 16 43 27q25 10 67 18t108 8q67 -1 109.5 -23.5t67.5 -53t35.5 -62.5t12.5 -53q3 -30 -5.5 -62t-27 -63.5t-47.5 -59.5t-67 -50q-77 -45 -122.5 -85.5t-46.5 -66.5q-1 -13 3 -23t9 -18q5 -9 13 -17q-18 -12 -32 -21q-12 -8 -22 -14.5t-10 -5.5q-27 29 -35 58.5
t4 61.5t45 69t89 81q49 39 76.5 64.5t41 46.5t18 42t6.5 51q1 21 -8 47.5t-27 50t-44 39.5t-58 15q-32 -2 -53 -7.5t-33 -12.5q-14 -8 -21 -17l-152 -146zM148 -23h102v-143h-102v143zM443 593l-26 -74l28 -80l32 80z" />
    <glyph glyph-name="numbersign" unicode="#" horiz-adv-x="598" 
d="M77 516h134l66 184h57l-65 -184h128l67 184h57l-66 -184h123l-20 -54h-121l-45 -126h126l-16 -52h-130l-66 -185h-56l66 185h-128l-66 -185h-58l65 185h-129l16 52h130l47 126h-137zM336 336l43 126h-128l-46 -126h131z" />
    <glyph glyph-name="ampersand" unicode="&#x26;" horiz-adv-x="769" 
d="M471 308h281l-115 -71q-9 -45 -24 -92q-13 -40 -33 -87.5t-49 -90.5l38 -66l140 -66h-233l-25 48q-39 -26 -89 -42t-113 -18q-68 -2 -116 22t-78 60.5t-43 80t-10 79.5q2 25 9.5 57t29 66t62 68.5t108.5 65.5l-10 20q-19 34 -32 70q-12 30 -20.5 66.5t-6.5 70.5
q2 33 18 63t42.5 52t63.5 34.5t81 12.5q54 0 87.5 -17t52 -43t25.5 -58.5t7 -63.5q0 -36 -16 -69t-40.5 -61.5t-55 -52t-58.5 -40.5l149 -280q11 18 23.5 41.5t23 50.5t16.5 57.5t5 61.5zM286 -104q21 0 38.5 4.5t33 11t30.5 15t31 17.5l-176 321q-23 -11 -46 -27t-41.5 -37
t-31 -48.5t-15.5 -61.5q-3 -32 6 -66t30.5 -63t56 -47.5t84.5 -18.5zM261 540q0 -20 5.5 -42t13 -43.5t16 -41.5t16.5 -36l9 -15q61 40 95 78.5t34 93.5q0 34 -8.5 55.5t-22 33.5t-31 16.5t-36.5 4.5q-29 -1 -46.5 -11.5t-27.5 -25.5t-13.5 -33t-3.5 -34zM501 -91l-86 214
l-46 28l-3 -55zM356 231l-42 23l-9 -48l43 -21zM207 588q-9 -13 -12.5 -30.5t-3.5 -37t2 -39.5t5 -38q5 -28 18.5 -57.5t31.5 -64.5l46 -31l5 56q-11 11 -22 26q-10 13 -21.5 31t-21.5 41q-2 4 -7 17t-10.5 32.5t-8.5 43.5t-1 51zM53 140l-26 -74l28 -80l32 80z" />
    <glyph glyph-name="backslash" unicode="\" horiz-adv-x="421" 
d="M399 -165h-47l-351 866h47z" />
    <glyph glyph-name="plus" unicode="+" horiz-adv-x="547" 
d="M50 304v52h198v195h52v-195h195v-52h-195v-201h-52v201h-198v0z" />
    <glyph glyph-name="asterisk" unicode="*" horiz-adv-x="812" 
d="M0 0l406 702l389 -702h-795zM203 346l199 -342l198 342h-397z" />
    <glyph glyph-name="at" unicode="@" horiz-adv-x="721" 
d="M119 -105q-23 -26 -52 -48t-63 -32q-2 33 13 66t32 62l185 232l53 64l130 162q5 7 14 8.5t16 6.5q25 22 45 47t39 51q-14 2 -17.5 15t-10.5 24q-11 -1 -20.5 -9t-11.5 -7l-34 31q9 9 19.5 11.5t22 2.5t23.5 -2t23 -2l32 -31l10 16q2 -5 5.5 -3.5t5.5 0.5q26 32 49.5 61
t47.5 65q5 1 11 4.5t9 7.5q6 2 10.5 -1t5.5 -9q-8 -2 -7 -11t-3 -15h-6l-89 -109v-6q-2 1 -2.5 0t-1.5 -2q8 -17 -11 -24l39 -27q8 -20 14 -42.5t-2 -45.5q-1 1 -14 9t-25 18q2 8 5 16t1 18q-5 4 -12 4.5l-14 1t-12.5 3.5t-6.5 11q-11 -17 -25.5 -32.5t-27 -31.5t-21 -34
t-8.5 -40l-81 -102l-282 -352v0zM119 15q-15 -20 -32.5 -39t-31 -38t-19 -38t4.5 -38q15 1 28.5 5.5t25.5 12.5l306 380l75 95q3 2 3.5 7.5t-0.5 7.5q0 16 12 34.5t26.5 36t28 33t17.5 26.5l-19 -7q-6 5 -1.5 9.5t1.5 11.5l-52 -65q-18 -18 -31 -28t-21 -14.5t-12.5 -6.5
t-5.5 -4l-303 -381v0z" />
    <glyph glyph-name="equal" unicode="=" horiz-adv-x="529" 
d="M58 292h431v-47h-431v47zM58 459h431v-47h-431v47z" />
    <glyph glyph-name="underscore" unicode="_" horiz-adv-x="534" 
d="M1 -152h499v-47h-499v47z" />
    <glyph glyph-name="bracketleft" unicode="[" horiz-adv-x="251" 
d="M-1 762h226v-44h-137v-905h137v-46h-226v995z" />
    <glyph glyph-name="bracketright" unicode="]" horiz-adv-x="256" 
d="M225 -233h-226v46h137v905h-137v44h226v-995z" />
    <glyph glyph-name="percent" unicode="%" horiz-adv-x="1007" 
d="M971 35l28 -17v-8l-72 -11l-4 4l-47 -7l-96 28l-22 9l-25 6l-96 29h-6l-14 -19l-2 -14l-9 -8l-21 2l-5 -15l-14 -34l-67 -71l19 -19l18 -8l26 -30v-10l4 -1l-4 -3l4 -3l-4 -3l6 -9l-61 -2l-52 7l-51 20l-55 15l-3 -3l-9 3h-6v4l11 6l-1 3l1 14l33 39l18 19l7 30l9 11
l2 19l4 2l-21 12l-20 5l-18 -9l-15 -15l-31 -18l-34 -12l-10 -9l4 -59l-5 -9l1 -4l-8 -14l8 -5h4l-9 -6l-3 4l-7 -4l-12 4l-3 -4l-47 6l-24 -13l-52 3l-3 2l-2 -2l-4 2h-6v6l3 2l-18 31l-5 32l1 4l-4 11l-44 33l-15 120l-6 63h-1v11h1v-3l4 -3l-4 -2l10 -36l2 11l-13 131
l1 4l-1 1v7h1l4 3l2 -3h4l2 3l-2 2l2 2l-2 4h-4l4 2l63 13l7 10l8 21l25 23v11l34 27l-9 35l-60 3l-9 6h-29l-4 2l-1 -2l-4 2h-2v4l17 4l8 8l-12 7l33 18l16 17l37 30l2 4v3l-2 4l10 21l19 31l10 7l5 15l26 27l31 31l31 11l32 1l3 3l66 -3l19 -7l44 -30l35 -39l19 -41
l23 -27l2 -61l-10 -56l-18 -32l-7 -8v-7l14 -19v-25l-4 -4l6 -29l5 -15l4 -15l8 -35l27 -34l34 -33v-11l8 -7l18 -4v-3l-25 7l-1 1l-15 -23l-6 -7l-19 -12h-4l-4 -2l4 -8l34 -26h14l4 1l13 -5l-8 4h-3l-6 -6l9 -9l16 4l7 7l4 27l8 20v12l-14 12l-1 3l21 -11h1l22 39l3 5
l15 -4l4 -7l-12 -37v-4l18 -8l72 -17l123 -30l50 -14l19 -13h5l25 -17v0zM649 172l-15 -30l15 25l15 5l3 3l-6 6h-9l-3 -9v0zM184 619l-2 -9l54 18l3 -3h12l14 3l1 -3h6l38 -6l6 -5l21 -6l25 -13l43 -44l18 -36v11l2 3l5 -7v-10l-2 -34l14 32l7 27l4 25l-15 19l-10 25l2 2
l29 -43l3 -28l5 10h2l4 -2l-4 -1v-10l-20 -44l6 -5v-10l-2 -4l-9 -38l4 -2l36 -18l4 11l6 17l5 9l7 51l-3 2l3 4l1 15l-1 4l1 3v5l-1 3l1 3l-27 38l-18 38l-43 44h-4l-11 12l-29 16l-29 6l-19 -4l-62 -7l-21 -6l-60 -58v0zM425 364l5 -6l-2 -29l20 25l26 48l-7 10l-25 7
l-23 -36l-26 -19v-16l-12 -28l-21 -21l-4 2l4 19l-4 5l-14 -26l-21 -33h-9l-21 15l-3 -1l-5 -142l3 -1h2l64 26l8 -2l21 11v6l-2 -3h-5l-3 3v3l27 30l13 26l-2 4l2 15l-2 18l2 19l8 64l6 7v0zM409 186l-4 11h-5l-6 -9l15 -2v0zM365 156l-13 -8l13 5v3v0zM286 117l-3 2v4h-3
v-11h3l27 7l27 18l4 8h-4l-6 -11l-21 -11l-24 -6v0zM297 128h1l29 14h-6l-24 -14v0zM319 116l-39 -14l3 -19l22 10l47 44l-33 -21v0zM184 402l-6 -40l4 -14l15 -16l11 32l-12 52l-12 22l1 -16l-1 -20v0zM177 401l1 18l-11 19l-10 3l2 -28l14 -15l4 3v0zM217 362l-9 -33
l18 -5l29 1l-19 23l-19 14v0zM221 369l34 -21l31 -13l66 23l8 10l5 -6l-3 -4l3 -29l6 -11l10 19l5 75l14 29l-2 19l-8 22l-15 14v-8l19 -36l-9 -33l-4 3l4 34l-6 7l-19 3l-6 -3l17 -13v-6l-4 -3l-2 3l-5 8l-14 4l3 -4v-11l-8 -8h-10l-7 8l-12 9l-2 -4h-12l-5 6h-7l-9 -2
l-1 2v4l-10 -12h-1v-6l-4 -4l-3 4l-7 -7h-7l-8 2l-4 11h-11l-7 -3l3 -10l-3 -4l-3 4l-4 10l1 3l-1 2l-15 -5l5 -10l24 -62v0zM244 446l7 -2v2h-7v0zM371 478l-4 4v14l-13 -14h8l9 -4v0zM356 475h-7l-22 -12l29 12v0zM416 406l-16 -17h-6v-14l4 4h2l23 22l11 23l4 26h-8
l-5 -4l-2 -19l-7 -21v0zM400 401l5 5h4l6 21l-15 -26v0zM436 457l2 -1v1l6 18h-2l-8 -7l-25 -24l-15 -31h4v3l25 36l13 5v0zM265 332v-3l7 -9l14 -7l2 -14l20 -19l11 -4l27 48l10 21l-4 9l-17 -11l-42 -18l-7 -1l-21 8v0zM145 556l-1 -9l1 -2l18 6l2 -4l19 9l38 3l44 -5
l50 -10l38 -18l46 -48l5 -28l10 7l1 39l-7 30l-11 19l-33 36l-16 10l-22 9l-19 6l-6 4l-69 6l-41 -10l-22 -11l-25 -39v0zM154 450l47 13l2 -3l-2 -3v-1h2l23 4l54 22l3 -4v-1l-6 -6l-30 -14l11 3l33 11l44 30l2 -1v-7l-6 -5l-19 -17l15 4l33 21l5 11l-11 8l-27 14l-62 16
l-80 2l-18 -10h-8l-14 -3l-49 -44h2l3 -2v-3l-5 -7h-2l-11 -15l-17 -6h9l3 -1l35 1l10 -5v-2h31v0zM154 394l-21 -21l5 -11l27 -33l17 -4v7l-9 13l-6 23l3 19l-7 7h-9v0zM108 343l-12 -23h8l9 4l39 5l-12 16l-13 13l-6 -1l-13 -14v0zM31 87l3 -3l7 -81l5 -12v4l6 4h4l4 -8
l-4 -6l4 -7h6l12 -12l10 8l2 -1v-3l-5 -9l23 -13l11 5l2 -2v-3l-2 -8l21 -18h5v4l9 8l5 -5l-5 -13l16 6l12 8h-5l-4 4v6l5 5h6l5 -5l-4 -4h4l22 19h-3l-1 4v5l4 6l10 -9l7 9l11 14h-3l-4 5l4 6l8 -4v4l7 84l-4 140l4 3l-4 2v8l-5 61h-9l-5 6l4 2l-4 3l-17 6l-8 -4l4 -2v-3
l-6 -6h-4l-5 6v3l5 6h-27l-11 -6l4 -3l4 -8l3 -86h8l19 -2l4 2h2l39 -2l2 -67l-5 -7l-32 -5l-4 2l-38 -5v-108l5 -11l-3 -1l3 -19l-3 -18l-57 -5l-2 3l-4 10l-6 29l3 1l-3 4v7l-2 76l-6 26l-55 -5l-4 5l3 61l-3 8l8 7l36 4l15 7v84l11 5l-5 8l-32 -6l2 -10l-2 -4h-7l-1 4v10
l-25 -4v-3l3 -8l-3 -4h-9l-2 4v5h-6l11 -110l-3 -3l5 -68l7 -13l-3 -4v0zM133 293l-35 -8v-88l-4 -5l-37 -4l-18 -6l2 -63h11l14 4l32 5l3 -2v-3l7 -36l-4 -3l6 -100l5 -11h12l32 1l-2 152l6 5h2l56 7l7 -1l5 5l-1 58h-11l-37 -3l-21 3l-4 80l4 1l-4 4l-2 8h-24v0zM108 304
l5 -9l35 6v5h-15l-25 -2v0zM44 -15v5h-5v-5h5v0zM78 -45l30 -19l-62 44l32 -25v0zM184 -118l8 3l22 20l18 36h-4l-11 -11l-44 -29l-14 -4l-74 39v-21l19 -37l23 -13h36l15 8v5l4 4h2v0zM265 -74l-4 8l4 2l-4 4v21h-6l-8 -6l-14 -26h3l15 19l2 -3v-4l-9 -15l-18 -21l-19 -20
v-7h25l12 8l14 19l7 21v0zM265 116l-4 1l5 43l-1 1l1 2l-1 4l1 8l-1 3l1 3l-1 1v10l1 1l-1 4v3l1 4l-1 1v6l1 69l-1 1v4l1 3l-1 3v13l-10 9l-8 -3l-11 4l-39 4h-1h-2l-42 2l-7 -6l-1 4l-66 -8l-53 -15h2l19 6l4 -2l2 2l27 5l4 -2l2 2h3l25 7l81 5h3l42 -5l14 -14l2 -18
l-2 -1l2 -4l6 -94l-3 -80l3 -4l-3 -2l3 -3l-6 -78l3 -1l-7 -30l-30 -33l-48 -36l-19 -6h11l20 11l43 33l23 20l7 12l7 117l-4 2l4 2v3l-4 3l4 4v0zM266 39l4 -15l-4 -39l6 33l-2 4v2v3l2 20l-2 2l2 3v10l-2 3l2 3l-2 4l2 1v10l4 29l-4 4l5 22l-1 4l1 8l-1 3l1 3l6 139l-6 15
h-7l2 -6l-2 -3l2 -2v-18l-6 -242v0zM341 10l97 109l11 7l29 12l-4 4l-19 8l-30 17l-2 -4l-23 9v3l4 3h-10l-9 -22l-23 -30l-6 5l-21 -25l-38 -29l-14 -4l-6 -46l3 -3v-9l-3 -1l3 -4l-3 -2v-13l-5 -17l40 17l29 15v0zM352 -129v2h-3v-2h3v0zM425 -154h5l-11 5l-10 6l-24 3
l15 -3l19 -6l6 -5v0zM554 -22v0l7 6l-4 1l-4 -6l1 -1h-1l-15 -8l-27 -9l-31 3l-25 10l-36 30l6 -15l-2 -4h-4l-4 6l-4 -2l8 -15l-4 -4l-6 4l-5 -4l-6 -30l-12 -11l-32 -33l-2 -18l15 -7l42 -4l14 -10l46 -15l37 -4l7 3l4 -3l15 -3l25 3v8l-3 2l-13 19l-24 19l-4 -1l-2 1v4
l-19 7l-29 -7l-21 7v4l2 3l18 -3l1 3l4 -3l2 3h5l33 25l-27 -3l-17 4l-1 -1l-3 1l-17 10l-19 15l-4 11l4 4l7 -9l19 -16l18 -5l25 -4l26 9l35 33h1v0zM573 14l3 13l-3 13l-24 37l-13 7v7l-8 7h-4l-17 14l-8 7l4 4h15l11 5l3 -2l4 2l7 3l18 17l5 24l-42 44l-18 29l-18 59
l-3 60l-11 16l-19 -26l-19 -41h2l4 1l17 31l3 -2v-4l-13 -26l-26 -33v-10l-4 -38l-8 -28l4 -11l21 -23l19 -9l33 -23l9 -12l-3 -3l-25 5l-16 -5v-4l-5 -3h-4l-33 -33l-36 -50l59 -19l10 -11l-2 -4l6 -8l25 -17l33 -1l32 5l13 11v6l22 19v0zM582 49l5 13l-2 3h-5l-14 3l6 -10
l10 -11v2v0zM606 35l36 77l19 49h-9l-15 -33l-22 -41v-10l-7 -5l-15 -29v-8h2l3 -2l8 2v0zM656 123l-11 -21h4l7 21v0zM880 3v1l-18 29l-97 25v2l4 2l40 -10l47 -9l6 -4l4 4l44 17l-2 2l-36 10l-128 32l-80 19l-12 -27l34 -12l79 -22v-2l-2 -2l-114 29l-7 -14l40 -13
l198 -57v0zM888 4l101 11l-12 9l-57 34l-48 -19l5 -21l11 -14v0zM2 295h7l1 4l-8 -11l7 -81l1 -14v-11l-8 67l-1 31l1 15v0zM277 419l3 -3l-4 -27l1 -2h3v-4l-8 4l-6 11l11 21v0zM362 368l19 51l-16 -51h-3v0zM291 380h7l-21 -7l14 7v0zM305 380l-3 -1l-4 1h7v0zM288 362
l3 -4l-5 4h2v0z" />
    <glyph glyph-name="asciicircum" unicode="^" horiz-adv-x="789" 
d="M761 469l5 -14l-32 12l-52 3l-27 -3l-22 -8l-19 -14l-11 -10l-6 -4l-23 -34l-14 -25l-4 -3l-5 -9l-6 -11l-33 -33v-2l11 -4l-39 -23l-1 -2v-3l8 -13l1 -16l6 -23l-10 -26l-6 -10l-18 -4l-5 -2l-8 5l-18 -3l-5 -7v-5l-20 -28l-8 -34l-10 -16v-2l9 -12l1 -14l4 -17l25 -4
l39 -7l20 -2l68 -10l4 -1l2 -7l15 -11l8 -6l6 -10l18 -20l30 -57l7 -21l13 -24l-2 -7l5 -13l-2 -1v-3l2 -1l11 1l2 -2l-2 -4h-10l-1 -1l1 -10l-1 -2l-5 12l-83 -13l-3 -3l-35 -3l-42 -3l-5 -1l-21 1h-4l-6 4l-12 4l-18 12l-5 2l-10 -2l-63 51l-41 32l-5 4l-17 -4l-35 2
l-11 4l-15 16l-5 11l-11 12l-9 2l-7 7l-1 8l-3 6l-3 2l-4 3h-4l-50 -47l-7 -3l-14 -3l-15 -7l-22 -4l-40 -12l-2 -2l-4 3l-20 -5l-1 1l2 5l3 16l7 14l8 12l18 21v3l44 33l8 5l26 38l23 45l-8 16v3v1h-4l-8 -11l-11 -27l-21 -31l-34 -13l-3 -3l-9 -2l-13 -5l-7 -2h-1l2 20
l11 38l3 8v7l-3 3l-5 6l-4 5l1 12l8 22v20v3l7 3l35 37l4 6v6l30 17l57 22l2 4l7 3l28 23l3 6l12 19l11 34v1l-23 3l-13 -4h-5l-2 1l12 23l3 6l12 12h4h1v2l-1 1l-32 -3h-5h-2l-8 16l-1 10l-4 2l-6 23l-2 25l-4 21v3l-1 1l8 47l24 63l33 79l6 7l4 1l20 -1l34 -7l2 -3l14 -1
l34 -18l24 -18l3 -2h3l2 1l31 -38l1 -6l5 -6l-1 -8l-5 -12l-4 -6v-2l1 -1l21 5l23 1l27 3l34 -1l27 1l9 -3l44 -6l40 -14l17 -10h2l1 2l-6 7l10 -2l16 -10h8l52 -33l12 -9l2 -4v-5l27 -26v0zM211 411l33 4v8h-2l-1 -2l-5 2l-5 -3l-13 -1l-13 -4l-16 2l-2 3l-6 24l-6 29
l-3 21l1 12l-1 5l1 11l4 27l17 49l1 6l4 8l11 30l17 34v5l4 3h4l32 -3l38 -15l31 -18l46 -40v-5l-10 -24l-8 -15h1l7 4l8 1v8l3 2l12 23l-6 12l-11 16l-16 14l-15 12l-33 23l-24 5l-25 5l-29 4l-8 2l-4 -4l-12 -32l-14 -32l-17 -54l-14 -46l-1 -9l-2 -35l8 -31l6 -15l1 -9
l3 -4l-1 -4l2 -9h6l13 2l9 -2v0zM244 524l-11 2l-2 -2l-1 -11l1 -2l11 5l2 3v5v0zM235 538h3v2h-3v-2v0zM239 552l16 16l10 6l-14 7l-7 -8l-5 1l-9 -6l-4 -7l-3 -12h3l2 7l11 10l2 -3l-2 -4l-3 -10h3v2v1v0zM217 508l-2 3v3l3 4l3 9l-3 1h-6l-7 -20l2 -2l9 -8l2 2v6l-1 2v0z
M230 429l9 20l-4 3l-12 7l-15 -34h7l15 4v0zM242 443l-3 -7l-3 -7l8 1v4l3 6l-1 4l-4 1v-2v0zM210 441l7 22l-1 1l-12 3l-2 -7l-4 -6l-4 -14l-4 -6v-6l2 -4h5l2 1l11 16v0zM190 493l-8 -16h1l14 11l-4 5h-3v0zM181 484l3 13l-6 3l3 -16v0zM198 469l-15 1l4 -22l2 -5l9 26v0z
M195 498l13 -5v4l-9 9l2 11h-3l-4 5l-13 5l-2 -4l-1 -14l3 -3h6l8 -8v0zM192 546l-5 -8v-5l11 -6l4 13l-5 6l2 2l2 21l9 10l1 8l5 9l10 -2l2 7l3 9l-13 5l-5 -13l-3 -14l-8 -11l-5 -13l-5 -18v0zM188 556l17 42l11 20l-6 3l-16 -43l-6 -22v0zM212 561l9 3l1 8l-10 1l-1 -1
l-1 -9l1 -2h1v0zM216 556h-5l-3 -10l2 -2h2l4 3v9v0zM217 579l13 -2l1 1v3l-5 5h-4l-5 -2v-5v0zM205 528l-1 -2l1 1v1v0zM215 534l9 5v3h-2l-4 -3h-5v-5h2v0zM276 602v5l-1 -3l-5 6l-1 2l-13 1l-5 -3l-12 -29h5v1l12 19l13 2l2 -2h4l1 1v0zM278 584l-2 -7l4 -8h2l2 3l1 -3h6
l2 3v6v0l-15 6v0zM273 588l-8 6h-4l-1 -8l10 -5l1 1l2 6v0zM239 601l2 3l-2 3h-3l-1 -6l-3 -4h3l4 4v0zM252 556l-3 -24l1 -1l11 -12l21 4l9 3l10 1l9 4l4 3l6 4v2h-1l-18 7l-11 9l-13 7l-10 3l-6 -2l-9 -8v0zM296 566l2 -2l15 -5l1 2l2 6h-1l-1 1l-4 4l-10 2l-4 -8v0z
M319 558l1 -2l16 -5v1l-9 9h-7l-1 -3v0zM321 572l15 -8l11 -6h3l5 8v7l-8 8l-22 11l-11 7l-23 11l-15 7l-27 13l-2 -2l-3 2l-26 14l-1 -2l-4 -14h5l8 -6l20 -9l4 4l10 2l10 -2l7 -7l1 2l3 -3l1 -6l-2 -2v-4h1l6 -5l22 -10l12 -10v0zM318 622l8 22h-3l-2 2l-10 4v-3l-16 -32
l3 -2l12 -4l8 13v0zM330 635l-9 -14l-6 -14l15 -8l12 22l2 9l-2 3l-8 5h-4v-3v0zM305 648v5h-1l-6 4l-5 2l-3 -4l-10 -23l-4 -7l2 -4h3l10 -2l5 14l9 15v0zM271 628l16 35l-18 8l-17 -36l19 -8v1v0zM249 642l13 29l-5 5h-7l-6 -3v-2l-3 -7l-2 -9l-6 -7v-4h2l12 -4l2 2v0z
M228 647l11 29l-6 1l-11 -27l6 -3v0zM352 590l11 17l1 5l-12 13h-5l-2 -10l-9 -13l-1 -8h1l3 -2l11 -6l2 1v3v0zM359 590l-4 -9l5 -2v2l9 15l1 8h-3l-8 -14v0zM201 370l38 5l10 5v3l-2 -1h-3l-2 3l15 20l16 12v3h-2l-5 -6l-27 -9l-23 -11l-8 -11l-7 -13v0zM252 419l12 2l3 4
l-1 4h-2l-2 1l-2 5h-5l-3 -16v0zM172 180v-21l5 -7l16 -8l20 1l8 9v5l-6 6l-8 15h-6l-12 -1l-2 -4l-3 -14l6 -1l11 -2v3l-6 6l-1 -2l-2 -5h-2l-1 1l-1 4l6 8h3l13 -14l-6 -9l-2 2h-19l-5 7l4 22l2 3l10 1l-1 2h-15l-6 -7v0zM239 100l-21 -10l-3 -5l-2 -9l4 -5l5 -4l14 2l3 3
v1l38 31l-26 5l-2 -2l-10 -7v0zM228 113l2 -2l1 2h-3v0zM212 101l-4 -3h3l4 3h-3v0zM204 100l4 4l8 6l1 -1h1v2l-17 4l-8 -2h1l8 -6l2 -7v0zM103 238v-2l26 -12l16 -11v-5l3 -12l-1 -1v-1l5 -10l-5 -57l11 -14l11 -15l3 8l11 15h5l1 -1l15 4l8 -4v1l-2 6l-2 2l-14 2l-1 -1
l-14 5l-10 10l-6 28l-5 8v7l-6 11v5l-4 43l8 11h-2l-16 -6l-21 -7l-14 -7v0zM173 81h-1v-3h1v3v0zM63 60l8 2l-1 2l-4 1l-26 16l-9 -37h1l17 7l14 9v0zM91 73l15 27h-2l-8 -7l-8 -3l-2 -3l-9 -5v-5l-7 -2l-13 5l26 -15l2 2l6 6v0zM54 90l4 -3l-1 3h-3v0zM140 159l3 22l-6 17
l-14 13l-12 5l-18 5l-13 -7l-22 -24l-3 -9l-6 -13l-4 -16l-3 -8v-23l16 -8l8 -2l17 -7l29 30l10 5l18 20v0zM34 -71l3 5l-2 3l-6 19l-6 -8l-6 -10l2 -4l-3 -3l-1 -7h4l2 3h5l3 2h5v0zM91 -46v3l-11 8l-2 7l-3 15l2 11h-4l-4 -1l-11 -9l-7 2l-19 -20v-4l5 -12l5 -14l6 -6v1
l-9 22l1 1l-1 8l3 6l3 -3l5 -21l4 -6l19 3l4 3h2l5 -1l4 7h3v0zM174 2v2l-4 4l-4 5l1 2v6l-3 3l-2 23l1 4l3 14l-2 2l-2 4l1 15l-2 4l-8 5h-6l-41 -68l-9 -9l-9 -8l-4 -7l-1 -25l14 -18l35 6l42 36v0zM178 100l-4 -14l1 -1h2l4 2l-3 8l9 12l2 -3v-3l-5 -3l-1 -5h4h1l6 5l3 8
h-2l-1 1l-11 2l-5 -9v0zM201 78l-4 8h-3l-11 -5v-3l-1 -1l-5 -2l-2 -10h3l4 4l19 9v0zM184 28l26 34l-3 7h-3l-9 -3l-14 -8l-3 -7l-3 -38l3 -3h1l9 -7v5l-1 2l-3 18v0zM224 49l2 8l-10 1l-4 -7l-17 -20l3 -18l7 -20l3 -14l7 42l9 28v0zM233 -17l6 4h-4l-3 2l1 -6v0v0zM233 3
l6 5v0l-4 2v2l-3 -10v-9l1 10v0zM259 -60h16l-6 2l-7 6h-2l-5 -3v-3h1l3 -2v0zM285 -62l2 2h-5v-2h3v0zM287 -53v4l-9 6l-5 1l-4 -2v-3l6 -6h12v0zM282 -35h2v1h-2v-1v0zM301 41l15 14l11 2l9 9l16 3l13 -3v3l-12 4l-20 2l-23 -6l-10 -7l-2 -5l-18 -22l-9 -9v-5v-4v0l2 -30
l-2 30l4 4h1l9 2v1l16 17v0zM310 21l10 -6l-5 6h-5v0zM360 -18v1h-1l1 -1v0zM374 -105v11l-4 12l-2 40l1 -36l-1 -22l4 -5h2v0zM394 -119l4 -2l-2 10l-4 29l2 -37v0zM421 -136v5l-3 12l-7 75l-3 5h-1l2 -8l-1 -1l8 -73l2 -15h3v0zM421 -53v0v6v0v-6v0zM655 -150v2h-4l-36 -8
l40 6v0zM646 -145l5 3l-5 2l-9 4l-3 2l-25 8l-34 17l-11 9l-21 8l-15 3l-5 3v4l-36 13l2 -3l-2 -3l-1 2l-10 2v-2l1 -13l-1 -3h-2l-1 1l-5 22l-9 3v-2l8 -36l-3 -4h-1l-6 9l-8 38l-3 3h-4v-5l4 -3l2 -26l3 -15v-30l-2 -2l-3 2l-4 23l-5 22l-5 41h-3l4 -48l4 -52l16 -8l29 -7
l28 2l95 11l19 4l22 1v0zM591 -109l12 -7l16 -6l-16 10l-12 3v0zM433 39l-68 5l-15 5h-15l-30 -18v-3h2l19 -10l3 -5l53 -20l8 -6l39 -21l24 -9l75 -34l26 -12l40 -16l40 -20l12 -7h2v1l-19 44l-24 43l-44 51l-23 14h-15l-13 3l-46 9l-13 -1l-18 7v0zM392 75l-18 18l-14 13
l-7 3l-3 -3h-5l-7 -3l-12 -3l-28 -5l-5 -4l-17 -6l-19 -20l-16 -33l-6 -20l1 1l5 2h1h2h2v8l9 26l9 13h2l10 10l27 19l2 -4l-5 -5l-7 -4l-22 -18l-9 -13l-5 -14l-6 -28h1v7l5 3h3l4 2l-2 9l4 7l35 40l13 5l1 -1l24 4l20 -1l10 -5v2l-4 4l-18 12v2l3 3l2 -2l7 -3l8 -8l13 -13
l4 -5v-2l5 -5h3l4 -2v2l-1 9l-3 6v0zM404 154l9 21l-4 9l-8 11l-27 15l-24 4l-3 -1l-5 -5v-9l-19 -21l-4 -10l-43 -47v-2h2l2 1l18 4l3 -4l-11 -6l6 -1l19 8l8 3l22 -3l18 -6l7 1l10 -9h4v2l4 4l1 5l10 17l5 19v0zM438 198l4 1l-1 14v-5l-4 -4l-1 -6h2v0zM446 249l2 8h-2v-2
l-4 -2l-5 -3l-8 2l-1 -2l-2 2h-5l-29 -2l-13 -2l-29 -9l-17 -9l-12 -9l-44 -5l-6 -2l-1 2h-1l-3 -3h-4l-2 3h1l1 5l7 24l6 31l-2 15l2 9l-4 3l-2 8h-3l-5 9l-1 8l-4 12l1 34h-2l-5 -4l-8 -3l-11 -30l10 9l1 -1v-3l-10 -11l-2 -9l-12 -17l-25 -29h-6l-10 -9l-3 -23l1 -5
l-1 -1l3 -20l12 -23l9 -2l10 -4l8 -6v-5l12 -17l2 -14h2l12 -5l3 -4l29 -3l25 28l17 20l3 17l-1 4l3 3l30 16l21 -2l27 -7l17 -11l6 -20l6 33l2 21l4 5l3 -4v-2l7 13v0zM287 285v-3l-2 -3h-1v-5l-2 -6l2 -5l17 -22l13 -8h5l8 3v2l4 4l4 3l-19 10l-15 13l-6 9l-8 8v0z
M320 272l1 -1l-1 -2v-3l10 -4l9 -5l6 -5h2v1l-5 5v5l-11 9l-1 4l-7 1l-3 -5v0zM334 288l1 -1h10l14 -7l9 -1l2 3l-5 3h-6l-5 3l-16 3l-4 -3v0zM300 233l-19 21l-4 -16l-8 -19l22 8l14 3l-5 3v0zM476 199v2l-5 6l-3 9l-4 3l-1 5l-5 25l1 1v5l-1 2l1 1v5h-2l-8 -34l2 -15
l7 -15l6 -3l12 3v0zM486 267l-6 12l4 -21l3 -34l-3 -10h-1l-5 4l-4 11l-3 24l1 21l-1 2l-2 -29l4 -24l7 -18h3l1 2l3 12l4 10l-5 38v0zM487 294l20 11h-13l-5 -5l-2 -6v0zM532 362l2 26l-4 20l-3 2l3 7l2 20l-20 46l-18 21l-10 4l-16 6l-42 9l-2 -1l-3 2l-45 4l-8 -1l22 -3
l6 -6l-1 -1l-45 -1l-1 1l-78 -8l-30 -9l-8 -3l-3 -5l-12 -4l-10 -11h3l21 -5l23 -15l25 -31l7 2l6 6l14 7l20 16l15 10l3 -3l-1 -1l-14 -11l6 2l14 9l3 -3l-1 -1v-2h2l1 2l15 3l18 2l8 -2v-2l-1 -1l-13 -2l-49 -11l-32 -18v-2l17 2l5 -5l11 -31l11 -20l17 -34l3 3l3 -3
l-3 -2l-6 -5l-2 1l-8 10l-4 1l2 -7l-2 -2l-1 2l-9 16h-4l-4 -3l-4 -4l-9 -2l-10 3l-4 5l-2 3l-2 11l8 11l1 7l-21 3l-3 2l3 3l14 3l12 -2v2l-5 6l-7 17l-8 3l-31 -30l1 -2h4l1 2l4 -4v-1l11 -2l5 -4v-4l-1 -1h-2l-1 1l-15 2v-1l-4 -24l3 -18l12 -24l34 -37h3v1l4 10l1 10
l2 3l18 1l24 -6l13 -5l7 -7l-4 -4l-11 -5l-15 -18h4l2 1l28 9l24 3l5 -3l12 1l13 7l26 39l16 24v3l4 4l4 5l6 36h-3l-16 -10l-29 -10l-23 -2l-5 -3l-41 -3l-25 3l-8 13l3 2l30 -3l68 5l13 5l30 8l30 8l1 -1v-2l-6 -5l-13 -2l-3 -40l-3 -3h-3l-5 -9v-7l-3 -5l-20 -39h2l14 16
l15 24l8 10l2 -1v-4l-2 -4l-3 -9h1l5 6l15 22l9 20v0zM739 475v4l-13 13v5l-6 6l-22 16l-18 9l-6 4l-10 2l-5 -2l-8 6h-5l-23 10l-26 10l-38 9l-39 5l-57 1l-7 -4l-3 -2h-16l-58 -11l-7 -5l-9 -5l-29 -17h5l16 2l4 2h5l82 -4l15 -5l27 -13l12 -2l17 -16l23 -38l3 -10l-2 -1
l-3 -25l-4 -6v-7l7 -9v-2l2 -4l-2 -4l2 -2v-5v-1v-9l3 2l11 18l9 11l13 23l35 33l30 12l19 8l34 5l30 -3l12 -4v0zM298 343l-11 14l-3 12h1l8 -15l8 -11l24 -5h1l1 -1l-1 -1l-17 2l-11 5v0zM486 360l1 -9v-2l-3 -3l-13 -1l-15 -4v-3l8 -11v-4l-8 8h-3l-12 -14l-9 -9l-11 -5
l-10 2l-3 5l3 13l-2 2l-9 -3l-6 -4l-2 2l9 6l-11 2v3l26 7l35 16l26 13l5 -1l4 -6v0zM421 294l-21 8l-8 8v3l9 -8l15 -5l20 2l1 1l1 -1l-17 -8v0zM367 300h-4l-3 2l2 3h5l2 -3l-2 -2v0z" />
    <glyph glyph-name="braceleft" unicode="{" horiz-adv-x="326" 
d="M288 730q2 -8 3 -14t1 -4q-43 0 -66.5 -9.5t-34 -27t-10 -41.5t5.5 -53.5t11 -62.5t8 -68q2 -53 -16 -87t-40 -53.5t-40.5 -26t-17.5 -5.5q0 1 18 -5.5t39.5 -26t39 -55t17.5 -92.5q0 -47 -6 -86t-11 -70t-6 -54.5t8 -39.5t32 -24t67 -8q1 -12 2 -21q1 -8 1.5 -14
t-1.5 -5q-67 -2 -106.5 10.5t-59.5 34.5t-24.5 52.5t-1 66.5t10.5 75t10 78q2 28 -2 50.5t-12 39t-19 28.5t-23 20q-28 18 -66 24v17v11t1 5q58 17 83 47.5t31 71.5t-1 91.5t-14 106.5q-5 46 11.5 73.5t39.5 40.5q28 17 52.5 22.5t42.5 6.5t28.5 -0.5t10.5 1.5z" />
    <glyph glyph-name="braceright" unicode="}" horiz-adv-x="317" 
d="M10 750q0 -3 10.5 -1.5t28.5 0.5t42.5 -6.5t52.5 -22.5q23 -13 39.5 -40.5t11.5 -73.5q-7 -56 -14 -106.5t-1 -91.5t31 -71.5t83 -47.5v-5q0 -2 0.5 -5t0.5 -6v-17q-38 -6 -66 -24q-12 -8 -23 -20t-19.5 -28.5t-12.5 -39t-1 -50.5q3 -39 10 -78t10.5 -75t-1 -66.5
t-24.5 -52.5t-59.5 -34.5t-106.5 -10.5q-2 -1 -2 5t1 14q1 9 3 21q43 0 66.5 8t32.5 24t8 39.5t-6 54.5t-11 70t-6 86q0 57 17.5 92.5t39 55t39.5 26t18 5.5q1 -1 -17.5 5.5t-40.5 26t-40 53.5t-16 87q1 35 7.5 68t11.5 62.5t5.5 53.5t-10 41.5t-34 27t-66.5 9.5
q-1 -2 0.5 4l3.5 14z" />
    <glyph glyph-name="bar" unicode="|" horiz-adv-x="185" 
d="M71 701h47v-866h-47v866z" />
    <glyph glyph-name="less" unicode="&#x3c;" horiz-adv-x="584" 
d="M527 489l-409 -164l409 -166v-55l-466 194v53l466 191v-53z" />
    <glyph glyph-name="greater" unicode="&#x3e;" horiz-adv-x="586" 
d="M59 542l466 -191v-53l-466 -194v55l409 166l-409 164v53z" />
    <glyph glyph-name="quotedbl" unicode="&#x22;" horiz-adv-x="208" 
d="M71 702l-21 -173h-34l-16 173h71zM186 702l-21 -173h-34l-16 173h71z" />
    <glyph glyph-name="quotesingle" unicode="'" horiz-adv-x="93" 
d="M71 702l-21 -173h-34l-16 173h71z" />
    <glyph glyph-name="Z" unicode="Z" horiz-adv-x="719" 
d="M197 -105h369l155 136l-77 -196l-618 1l514 808h-353l-187 -154l94 210h621l-518 -805v0zM581 606l-163 -208l-4 -55l57 23l110 240v0zM395 300l-51 -18l2 -50l49 17v51v0zM268 164l-120 -247l171 215l-3 54l-48 -22v0z" />
    <glyph glyph-name="e" unicode="e" horiz-adv-x="375" 
d="M1 605h351v-214l-73 181h-119v-242h71l48 72v-181l-46 67h-73v-242h123l69 226v-272h-351l44 38v528l-44 39v0z" />
    <glyph glyph-name="l" unicode="l" horiz-adv-x="322" 
d="M308 0h-308l49 37v528l-49 40h216l-48 -34v-532h69l71 222v-261v0z" />
    </font>
</defs>
</svg>
